<?xml version="1.0" encoding="UTF-8" standalone="no"?><!DOCTYPE svg PUBLIC "-//W3C//DTD SVG 1.1//EN" "http://www.w3.org/Graphics/SVG/1.1/DTD/svg11.dtd"><svg width="100%" height="100%" viewBox="0 0 53 60" version="1.1" xmlns="http://www.w3.org/2000/svg" xmlns:xlink="http://www.w3.org/1999/xlink" xml:space="preserve" style="fill-rule:evenodd;clip-rule:evenodd;stroke-linejoin:round;stroke-miterlimit:1.41421;"><path d="M41.518,50.245c-3.036,0 -5.181,-1.675 -6.157,-3.604l1.653,0l0,-2.177l-2.244,0c-0.002,-0.05 -0.009,-0.101 -0.009,-0.15c0,-4.955 3.041,-6.035 4.018,-6.035c1.646,0 2.514,0.385 2.514,1.023c0,0.638 -1.501,0.488 -1.501,2.009c0,1.388 0.827,1.952 2.028,1.952c1.2,0 2.176,-1.089 2.176,-2.328c0,-1.239 -1.201,-3.904 -4.655,-3.904c-4.391,0 -5.93,4.655 -5.93,7.208c0,0.071 0.006,0.15 0.009,0.225l-1.211,0l0,-8.933c1.787,-1.242 2.89,-2.842 2.89,-4.131c0,-2.477 -2.139,-3.491 -2.139,-3.866c0,-0.376 0.151,-0.376 0.375,-0.451c0.225,-0.075 0.3,-0.225 0.3,-0.45c0,-0.226 -0.186,-0.338 -0.413,-0.338c-0.119,0 -0.592,0 -1.013,0l0,-14.472l3.753,0c0.533,4.936 4.112,9.999 6.608,14.021c2.703,4.355 6.907,10.399 6.907,15.467c0,5.067 -3.717,8.934 -7.959,8.934l0,0Zm-31.232,-6.982c1.201,0 2.027,-0.564 2.027,-1.952c0,-1.521 -1.501,-1.371 -1.501,-2.009c0,-0.638 0.868,-1.023 2.515,-1.023c0.975,0 4.016,1.08 4.016,6.035c0,0.049 -0.007,0.1 -0.008,0.15l-2.77,0l0,2.177l2.18,0c-0.978,1.929 -3.122,3.604 -6.159,3.604c-4.242,0 -7.958,-3.867 -7.958,-8.934c0,-5.068 4.204,-11.112 6.907,-15.467c2.497,-4.022 6.075,-9.085 6.608,-14.021l3.753,0l0,14.435c-2.025,1.452 -2.928,3.46 -2.928,5.33c0,1.676 0.954,3.399 2.928,4.554l0,8.322l-1.211,0c0.003,-0.075 0.009,-0.154 0.009,-0.225c0,-2.553 -1.539,-7.208 -5.93,-7.208c-3.454,0 -4.655,2.665 -4.655,3.904c0,1.239 0.976,2.328 2.177,2.328l0,0Zm15.09,-31.44l0,5.361c-2.376,0.317 -3.265,2.275 -3.265,3.48c0,1.314 0.413,2.628 2.139,3.829c-1.184,0.225 -2.201,0.573 -3.078,1.005l0,-13.675l4.204,0Zm6.833,17.153c0.555,0.336 1.013,0.999 1.013,2.124c0,0.708 -0.297,1.674 -1.013,2.579l0,-4.703l0,0Zm-5.481,8.504c1.556,-0.125 2.983,-0.567 4.205,-1.186l0,8.17l-4.205,0l0,-6.984Zm-1.352,0.025l0,6.959l-4.204,0l0,-7.712c1.152,0.439 2.555,0.709 4.204,0.753l0,0Zm-5.48,-3.719c-0.71,-0.89 -1.089,-1.935 -1.089,-2.986c0,-0.65 0.316,-1.643 1.089,-2.62l0,5.606Zm5.48,-4.068c-0.35,-0.132 -0.656,-0.309 -0.825,-0.458c-0.301,-0.262 -0.413,-0.337 -0.713,-0.337c-0.3,0 -0.263,0.3 -0.263,0.713c0,0.354 0.611,1.337 1.801,1.612l0,4.982c-1.711,-0.057 -3.129,-0.534 -4.204,-1.268l0,-8.01c1.004,-0.749 2.374,-1.377 4.204,-1.673l0,4.439Zm0,-6.129c-0.862,-0.963 -1.238,-2.098 -1.238,-2.775c0,-0.839 0.584,-1.677 1.238,-2.05l0,4.825Zm1.352,7.602c0.765,-0.257 1.602,-0.83 2.14,-1.255c0.63,-0.497 1.318,-1.08 2.065,-1.21l0,6.132c-0.999,0.683 -2.364,1.207 -4.205,1.347l0,-5.014Zm4.205,-19.368l0,14.895c-0.535,0.408 -1.33,1.028 -1.84,1.491c-0.659,0.599 -1.647,1.31 -2.365,1.576l0,-4.653c0.339,-0.022 0.685,-0.039 1.052,-0.039c-0.389,-0.11 -0.732,-0.266 -1.052,-0.439l0,-6.07c0.559,0.042 0.976,0.156 0.976,0.428c0,0.376 -0.225,0.376 -0.225,0.864c0,0.488 0.377,1.126 1.164,1.126c0.788,0 1.201,-0.375 1.201,-1.464c0,-0.962 -1.435,-2.097 -3.116,-2.35l0,-5.365l4.205,0Zm12.988,11.844c-3.379,-5.105 -6.081,-9.652 -6.081,-13.139c0,-3.486 1.084,-6.381 3.98,-6.381c1.876,0 2.575,1.262 2.575,1.736c0,0.474 -0.146,0.892 -0.802,0.892c-1.028,0 -1.474,0.83 -1.474,1.651c0,0.878 0.394,1.933 2.027,1.933c1.441,0 2.445,-1.623 2.445,-3.359c0,-1.258 -1.042,-4.059 -4.597,-4.059c-3.409,0 -5.883,2.164 -6.086,7.015l-3.699,0l0,-2.431l-1.276,0l0,2.431l-4.205,0l0,-3.13c1.573,-0.32 2.756,-1.711 2.756,-3.378c0,-1.904 -1.542,-3.448 -3.447,-3.448c-1.905,0 -3.448,1.544 -3.448,3.448c0,1.678 1.2,3.073 2.787,3.381l0,3.127l-4.204,0l0,-2.431l-1.276,0l0,2.431l-3.699,0c-0.202,-4.851 -2.678,-7.015 -6.085,-7.015c-3.557,0 -4.598,2.801 -4.598,4.059c0,1.736 1.004,3.359 2.444,3.359c1.633,0 2.028,-1.055 2.028,-1.933c0,-0.821 -0.446,-1.651 -1.474,-1.651c-0.657,0 -0.802,-0.418 -0.802,-0.892c0,-0.474 0.699,-1.736 2.576,-1.736c2.895,0 3.979,2.895 3.979,6.381c0,3.487 -2.703,8.034 -6.081,13.139c-3.379,5.105 -8.184,11.487 -8.184,17.343c0,5.856 4.129,10.812 10.511,10.812c4.697,0 6.908,-2.724 7.751,-5.181l5.35,0l0,5.436c-1.027,0.007 -1.989,0.005 -1.989,-0.03c-2.027,2.778 -5.706,4.279 -10.436,4.279l0,1.127l5.48,0l0,1.65l2.478,0l0,-1.65l5.406,0l0,1.65l3.003,0l0,-1.65l5.406,0l0,1.65l2.477,0l0,-1.65l5.481,0l0,-1.127c-4.73,0 -8.409,-1.501 -10.436,-4.279c0,0.035 -0.963,0.037 -1.989,0.03l0,-5.436l5.35,0c0.843,2.457 3.054,5.181 7.751,5.181c6.381,0 10.51,-4.956 10.51,-10.812c0,-5.856 -4.805,-12.238 -8.183,-17.343l0,0Z" style="fill-rule:nonzero;"/></svg>